# xmcd CD database file
#
# Track frame offsets:
#	150
#	30990
#	56429
#	74996
#	97994
#	135232
#	165717
#	185377
#	218511
#
# Disc length: 3353 seconds
#
# Revision: 0
# Processed by: cddbd v1.5.1PL0 Copyright (c) Steve Scherf et al.
# Submitted via: CDex 1.51
#
DISCID=730d1709
DTITLE=arco Paguia Trio - Small Hours
DYEAR=2002
DGENRE=Jazz
TTITLE0=Money
TTITLE1=Perry Strut
TTITLE2=Trial and Error
TTITLE3=Washing of the water
TTITLE4=Digging in the dirt
TTITLE5=Lover, you should have come over
TTITLE6=Tones for Joan's bones
TTITLE7=It never entered my mind
TTITLE8=Insomnia
EXTD=YEAR: 2002
EXTT0=
EXTT1=
EXTT2=
EXTT3=
EXTT4=
EXTT5=
EXTT6=
EXTT7=
EXTT8=
PLAYORDER=
